<svg id="Capa_1" enable-background="new 0 0 504.493 504.493" height="512" viewBox="0 0 504.493 504.493" width="512" xmlns="http://www.w3.org/2000/svg"><g><path d="m332.502 407.504-54.233-32.132-119.147-.284-20.655 6.255-17.085 68.969 46.795 54.181h101z" fill="#faf8f8"/><path d="m28.287 454.973 11.347 38.829 113.543 10.691h16.93l-3.65-6.97c-20.33-38.77-26.05-91.99-27.57-113.07-.08-1.05-.21-2.09-.42-3.11l-61.53 18.64c-25.3 7.67-44.12 28.94-48.65 54.99z" fill="#f0e9e6"/><path d="m16.175 504.493c-6.225 0-10.937-5.626-9.845-11.754l7.166-40.226c5.54-31.9 28.25-57.51 59.25-66.84l35.76-10.752c7.353-2.211 14.872 2.951 15.422 10.609 1.838 25.554 8.1 78.638 29.247 118.963z" fill="#bae6ef"/><path d="m355.391 240.168 6.455 1.777c15.442 4.251 24.501 20.259 20.235 35.754-5.884 21.372-27.92 33.944-49.219 28.08l-222.713-61.317c-21.299-5.864-33.795-27.943-27.911-49.316 4.266-15.495 20.242-24.61 35.684-20.358l6.455 1.777z" fill="#f2bb88"/><path d="m282.914 384.78-8.894-9.407-2.214-58.25h-.002v-.002l-.888.019-105.33 2.023s2.134 29.105 2.136 29.107l-7.653 18.623-1.149 9.931c-1.222 10.483 1.64 21.107 8.261 29.326 8.401 10.427 23.807 21.344 51.495 21.344 27.685 0 43.091-10.914 51.492-21.34 3.429-4.255 5.849-9.156 7.217-14.348.001-.006.001-.012.003-.017z" fill="#f2d1a5"/><path d="m278.27 375.373-6.46-58.25h-.01l-.88.02-105.33 2.02-3.48 30.06-2.04 17.67c9.99 7.58 20.63 12.98 31.75 16.04 7.47 2.05 15.42 3.1 23.65 3.1 12.333 0 25.478-2.397 39.032-7.003 2.996-1.018 6.169.956 6.518 4.101l.009.082c.208 1.877 1.472 3.469 3.253 4.098l13.077 4.613.03-.12s0-.01 0-.02l5.52-7z" fill="#f2bb88"/><path d="m355.391 240.168c-13.514 49.084-18.9 64.946-46.506 87.193-38.077 30.686-79.54 47.232-112.284 38.217-32.743-9.015-59.895-44.452-76.9-90.302-10.299-27.768-9.558-43.773-1.159-76.9 1.656-6.531 8.964-15.308 11.189-23.391l13.99-114.258 244.213 103.781z" fill="#f2d1a5"/><g fill="#f2bb88"><path d="m150.165 63.47-7.685 4.668c2.504-1.748 5.066-3.293 7.685-4.668z"/><path d="m387.935 164.508-32.255 74.999c-1.389-13.15-7.036-26.623-16.08-36.871-29.8-33.751-76.908-11.984-121.111-80.07-.01-.003-.017-.015-.014-.025-.648-.998-1.291-2.015-1.941-3.045-1.907-3.056-6.303-3.177-8.362-.217-1.839 2.647-3.704 5.203-5.623 7.652-9.986 12.726-21.26 22.442-36.703 26.622-18.528 5.022-41.78 36.924-47.304 44.821 1.664-6.533 3.615-13.733 5.839-21.812l18.1-108.425 7.685-4.668z"/><path d="m150.165 63.47-7.685 4.668c2.504-1.748 5.066-3.293 7.685-4.668z"/></g><path d="m213.603 87.735c-3.249 5.001-6.957 17.354-10.399 21.744-9.98 12.725-21.263 22.445-36.702 26.625-21.175 5.733-42.123 40.463-42.123 40.463-23.81-6.555-24.622-45.046-17.901-69.457 15.674-56.93 58.414-76.547 94.36-66.356 4.393 1.246 8.755 3.053 12.969 5.67 2.301 1.429 4.376 5.385 6.569 7.337 2.74-1.664 5.714-5.475 8.55-6.865 25.895-12.69 55.557-14.064 84.423-5.945 11.94 3.358 21.283 9.664 32.628 16.142 81.517 46.544 63.213 174.311 10.22 178.422 0 0 .594-5.686.425-9.661-.61-14.318-6.441-29.427-16.366-40.67-29.799-33.755-76.903-11.981-121.109-80.068-1.997-3.071-3.564-13.932-5.544-17.381z" fill="#7a6d79"/><path d="m355.395 240.165s.239-1.169.498-2.674c.659-3.75.897-7.667.715-11.638 36.545-31.396 42.465-135.478-27.457-175.4-8.514-4.864-17.294-8.879-26.194-12.003 15.463 3.096 30.848 8.96 45.476 17.312 81.519 46.548 59.955 180.292 6.962 184.403z" fill="#685e68"/><path d="m219.146 105.114c-1.455-2.237-2.905-4.571-4.349-7.007-.747-1.26-2.562-1.307-3.374-.089-2.68 4.019-5.398 7.859-8.218 11.462l10.596-63.049c1.761 1.087 3.495 2.318 5.192 3.709.965.791 2.322.869 3.401.243 2.148-1.246 4.329-2.41 6.534-3.48z" fill="#685e68"/><g><g><path d="m231.393 280.617c-9.151 0-18.24-2.82-25.775-8.027-3.408-2.354-4.261-7.026-1.906-10.434 2.354-3.407 7.026-4.261 10.434-1.906 5.363 3.706 11.904 5.599 18.418 5.344 4.132-.157 7.627 3.056 7.793 7.195.165 4.139-3.057 7.628-7.195 7.793-.59.023-1.18.035-1.769.035z" fill="#f2bb88"/></g><g><g><path d="m287.099 261.918c-1.746 0-3.498-.605-4.918-1.84l-21.5-18.696c-3.125-2.718-3.456-7.456-.738-10.581 2.718-3.126 7.456-3.456 10.581-.738l21.5 18.696c3.125 2.718 3.456 7.456.738 10.581-1.483 1.705-3.568 2.578-5.663 2.578z" fill="#f2bb88"/></g><g><path d="m173.093 228.84c-3.644 0-6.841-2.66-7.405-6.373-.623-4.095 2.191-7.92 6.287-8.542l28.167-4.285c4.098-.622 7.92 2.192 8.542 6.287.623 4.095-2.191 7.92-6.287 8.542l-28.167 4.285c-.382.058-.762.086-1.137.086z" fill="#f2bb88"/></g></g><g><path d="m225.774 327.172c-2.835 0-5.548-1.615-6.814-4.358-1.125-2.436-4.615-5.913-10.751-7.694-6.134-1.78-10.946-.711-13.201.744-3.479 2.248-8.123 1.248-10.369-2.231-2.247-3.48-1.248-8.123 2.231-10.369 6.659-4.3 16.199-5.252 25.519-2.549 9.32 2.705 16.868 8.616 20.19 15.813 1.736 3.761.095 8.217-3.666 9.953-1.018.468-2.087.691-3.139.691z" fill="#f2bb88"/></g></g><g><path d="m498.32 137.503c-.02 5.09-2.28 9.91-6.72 14.3-12.5 12.37-45.65 22.61-91.14 29.35-17.74 2.62-37.36 4.72-58.37 6.2-23.63 1.67-49.02 2.56-75.46 2.56-2.44 0-4.89-.01-7.35-.03-62.31-.38-120.88-5.51-164.94-14.42-49.61-10.03-73.7-23.09-73.64-39.92.07-17.64 28.91-31.65 85.71-41.62.12-.02 1.17-.19 4.74-.77-1.75 4.38-3.31 9.03-4.67 13.96-.19.7-.38 1.41-.56 2.13-58.15 10.58-70.2 23.44-70.22 26.36 0 3.54 11.05 14.93 61.61 25.16 3.64.74 7.39 1.45 11.23 2.13 7.24 1.29 14.82 2.48 22.7 3.58 37.47 5.19 81.71 8.12 128.13 8.41 2.51.02 5.02.03 7.5.03 20.9 0 40.64-.55 59.05-1.55 28.9-1.56 54.54-4.22 76.33-7.6 42.04-6.51 69.74-15.66 78.8-24.62 1.44-1.43 2.26-2.78 2.27-3.7.02-4.81-16.27-19.44-90.33-30-2.27-5.58-4.99-11.01-8.16-16.21 5.74.74 7.01.9 7.08.91 31.66 4.37 56.78 9.96 74.64 16.6 21.42 7.96 31.82 17.37 31.77 28.76z" fill="#f0e9e6"/></g><g><path d="m461.75 263.523c-3.99 6.35-11.59 9.53-22.92 9.53-14.25 0-34.4-5.02-60.73-15.08-42.05-16.06-94.24-43.15-146.97-76.26-23.53-14.78-45.94-29.98-66.45-45.04-19.95-14.64-38.1-29.14-53.75-42.96-4.31-3.81-8.42-7.56-12.33-11.25-36.81-34.75-50.33-58.6-41.33-72.94 6.07-9.66 20.25-11.94 43.34-6.98 19.02 4.09 44.32 13.21 73.16 26.38.15.06 6.4 2.84 13.31 5.9 6.01 2.66 10.06 4.46 12.8 5.67-11.76-3.15-24.21-3.13-36.18.33-68.87-30.93-91.3-27.18-93.72-23.32-1.9 3.02 1.39 18.63 38.92 54.05 2.79 2.64 5.69 5.3 8.7 8 17.89 16.08 39.42 33.18 63.38 50.43 18.15 13.06 37.7 26.2 58.13 39.03 41.08 25.79 81.74 47.84 117.32 63.7 3.47 1.56 6.88 3.04 10.24 4.47 5.76 2.44 11.36 4.7 16.79 6.78 48.2 18.42 63.69 14.61 65.59 11.58 2.11-3.36-2.78-22.44-50.68-64.77 1.44-5.53 2.52-11.35 3.21-17.35 2.82 2.6 4.66 4.29 4.99 4.59 20.67 18.12 36.09 34.17 45.85 47.72 11.89 16.5 14.94 28.86 9.33 37.79z" fill="#f0e9e6"/></g><path d="m270.897 497.523c15.297-29.171 22.318-66.508 25.506-92.192.54-4.35-2.144-8.448-6.341-9.711l-12.685-3.817c1.28-4.84 1.64-9.93 1.05-14.99l-.16-1.44 20.58 6.19 61.44 18.48c25.37 7.63 13.986 84.567 13.986 84.567l-90.096 19.883h-16.93z" fill="#f0e9e6"/><path d="m417.023 500.704c6.225 0 10.937-5.626 9.845-11.754l-11.489-36.255c-5.54-31.9-23.894-51.562-54.894-60.892l-30.128-7.789c-7.353-2.211-9.151-5.615-9.702 2.043-.14 1.95-7.538 3.534-7.734 5.787-2.378 27.268-9.212 75.401-28.745 112.65h127.09z" fill="#bae6ef"/><path d="m312.917 391.843 32.69 9.83c31 9.33 53.71 34.94 59.25 66.84l6.41 35.98h9.91c6.23 0 10.94-5.63 9.85-11.75l-7.17-40.23c-5.54-31.9-28.25-57.51-59.25-66.84l-35.76-10.75c-7.35-2.21-14.87 2.95-15.42 10.61-.14 1.95-.31 4.06-.51 6.31z" fill="#94d8e6"/></g></svg>