<svg height="512" viewBox="0 0 512 512" width="512" xmlns="http://www.w3.org/2000/svg"><g id="Flat"><path d="m496 496-37.08836-37.08836a173.8232 173.8232 0 0 0 -122.91157-50.91164h-160.00014a173.8232 173.8232 0 0 0 -122.91157 50.91164l-37.08836 37.08836z" fill="#e54042"/><path d="m336 88v320a79.99775 79.99775 0 0 1 -158.39014 16h-1.60986a103.997 103.997 0 0 1 -104-104v-128l64-104z" fill="#f5cfb0"/><path d="m130.29 278.269a8.00487 8.00487 0 0 1 -7.42481-10.97314l21.707-54.26709a7.99995 7.99995 0 0 1 14.85546 5.94238l-21.707 54.26709a8.003 8.003 0 0 1 -7.43065 5.03076z" fill="#f3c295"/><g fill="#2f4054"><path d="m144 200h-48a8 8 0 0 1 0-16h48a8 8 0 0 1 0 16z"/><path d="m224 200h-48a8 8 0 0 1 0-16h48a8 8 0 0 1 0 16z"/><circle cx="120" cy="224" r="8"/><circle cx="200" cy="224" r="8"/><path d="m408 192a167.27738 167.27738 0 0 1 -36.05 104h-51.95v-72a96.55717 96.55717 0 0 0 -28.28-68.28l-51.72-51.72c-3.8999 0-7.8.12-11.66992.35a193.1553 193.1553 0 0 0 -124.90015 56.22l-31.42993 31.43a168 168 0 0 1 336 0z"/></g><path d="m270.88477 367.4624-5.94141-14.85547 66.05957-26.42382a7.962 7.962 0 0 0 5.02832-7.43067l-.02344-76.87012a8.00019 8.00019 0 0 0 -11.57715-7.15332l-88.85254 44.42627-7.15624-14.31054 88.85253-44.42627a23.99988 23.99988 0 0 1 34.7334 21.459l.02344 76.87012a23.88546 23.88546 0 0 1 -15.08594 22.291z" fill="#8bcde8"/><path d="m277.65991 77.66-32 32-5.65991-5.66c-3.8999 0-7.8.12-11.66992.35l38.01-38.01z" fill="#262d43"/><path d="m345.73594 344a25.73589 25.73589 0 0 1 -25.73594-25.7359l-15-34.2641 15-36a40 40 0 0 1 40-40 40 40 0 0 1 40 40 111.57739 111.57739 0 0 1 -16.95995 59.13589l-15.48011 24.76821a25.7359 25.7359 0 0 1 -21.824 12.0959z" fill="#f5cfb0"/><path d="m72 256h176l48 104-40 64h-80a104 104 0 0 1 -104-104z" fill="#379fc4"/><path d="m264 360-40 64h-48a104.07019 104.07019 0 0 1 -101.22-80 105.18466 105.18466 0 0 1 -2.48-16q-.29993-3.96-.3-8v-40h160z" fill="#8bcde8"/><path d="m212.80005 318.4a128.79636 128.79636 0 0 1 -76.80005 25.6h-61.22a105.18466 105.18466 0 0 1 -2.48-16h63.7a112.72143 112.72143 0 0 0 67.2-22.4z" fill="#379fc4"/><path d="m237.65991 357.66-16.40991 16.4a142.11343 142.11343 0 0 1 -86.93994 41.24 103.5485 103.5485 0 0 1 -24.76-15.3h10.44994a126.35814 126.35814 0 0 0 89.93994-37.25l16.40015-16.41z" fill="#379fc4"/></g></svg>