<svg height="480pt" viewBox="0 0 480 480.05965" width="480pt" xmlns="http://www.w3.org/2000/svg"><path d="m376.03125 312c-13.257812 0-24-10.746094-24-24 0-4.417969-3.582031-8-8-8s-8 3.582031-8 8c0 13.253906-10.746094 24-24 24-4.417969 0-8 3.582031-8 8s3.582031 8 8 8c13.253906 0 24 10.746094 24 24 0 4.417969 3.582031 8 8 8s8-3.582031 8-8c0-13.253906 10.742188-24 24-24 4.417969 0 8-3.582031 8-8s-3.582031-8-8-8zm-32 16.246094c-2.332031-3.136719-5.109375-5.914063-8.25-8.246094 3.140625-2.332031 5.917969-5.109375 8.25-8.246094 2.328125 3.136719 5.109375 5.914063 8.246094 8.246094-3.136719 2.332031-5.917969 5.109375-8.246094 8.246094zm0 0" fill="#fdbd40"/><path d="m88.03125 112h-80c-4.417969 0-8 3.582031-8 8 .128906 119.238281 96.761719 215.867188 216 216 4.417969 0 8-3.582031 8-8v-80c-.085938-75.074219-60.925781-135.917969-136-136zm0 0" fill="#c8d952"/><path d="m472.03125 0h-80c-75.078125.0820312-135.917969 60.925781-136 136v80c0 4.417969 3.582031 8 8 8 119.238281-.132812 215.867188-96.761719 216-216 0-4.417969-3.582031-8-8-8zm0 0" fill="#c8d952"/><path d="m423.308594 52.695312c-1.816406-4.023437-6.550782-5.8125-10.574219-4-14.859375 7.175782-29.070313 15.621094-42.472656 25.25 1.851562-7.824218 1.632812-16-.632813-23.714843-2.160156-7.308594-7.074218-13.496094-13.703125-17.253907-3.976562-1.949218-8.78125-.304687-10.726562 3.671876-1.949219 3.976562-.304688 8.777343 3.671875 10.726562 2.6875 1.910156 4.644531 4.683594 5.542968 7.855469 2.015626 6.175781 2.273438 17.601562-7.921874 37.027343-38.621094 31.714844-69.347657 71.972657-89.75 117.597657-.273438.609375-.464844 1.253906-.570313 1.914062-7.378906 47.09375-12.039063 94.574219-13.949219 142.207031-9.265625-15.402343-17.105468-26.898437-19.121094-29.808593-12.371093-28.453125-28.878906-54.921875-48.992187-78.542969-.160156-.191406-.289063-.394531-.464844-.570312-12.144531-14.261719-25.410156-27.527344-39.671875-39.679688-.074218-.351562-.175781-.695312-.304687-1.03125-18.398438-35.046875-3.199219-44.472656-2.246094-45.015625 3.796875-2.0625 5.269531-6.769531 3.324219-10.632813-1.945313-3.859374-6.605469-5.472656-10.523438-3.648437-6.632812 3.761719-11.542968 9.945313-13.703125 17.257813-2.324219 7.90625-2.507812 16.285156-.539062 24.289062-13.40625-9.820312-27.640625-18.445312-42.550781-25.785156-3.988282-1.742188-8.636719.023437-10.460938 3.976562-1.824219 3.949219-.160156 8.632813 3.75 10.542969 29.542969 15.304687 56.589844 35.011719 80.207031 58.449219-37.777343-7.121094-50.847656 11.542968-51.503906 12.519531-2.378906 3.585937-1.449219 8.417969 2.097656 10.863281 3.582031 2.464844 8.472657 1.667969 11.085938-1.808594.144531-.160156 13.855469-17.191406 60.054687 1.832032 18.933594 22.265625 34.457032 47.21875 46.066406 74.039062.210938.507813.480469.988282.800782 1.433594 11.746094 17.160156 22.566406 34.933594 32.421875 53.246094.585937 36.113281 4.585937 69.363281 15 89.800781 2.011719 3.929687 6.824219 5.488281 10.753906 3.484375 3.933594-2.003906 5.5-6.8125 3.503906-10.746094-9.386719-18.402344-12.921875-49.425781-13.34375-83.570312.089844-.6875.089844-1.390625 0-2.078125.679688-56.082031 5.347657-112.046875 13.972657-167.464844 11.171874-25.066406 25.859374-48.410156 43.625-69.328125 47.242187-20.160156 61.601562-3.3125 62.097656-2.664062 2.550781 3.488281 7.410156 4.316406 10.976562 1.875 3.5625-2.445313 4.542969-7.277344 2.214844-10.914063-.65625-.984375-14.097656-20.089844-53.03125-12.175781 24.050781-23.664063 51.597656-43.480469 81.679688-58.761719 1.9375-.886719 3.441406-2.515625 4.175781-4.515625.734375-2.003906.640625-4.214844-.265625-6.148438zm0 0" fill="#238892"/><path d="m216.03125 64c-13.257812 0-24-10.746094-24-24 0-4.417969-3.582031-8-8-8s-8 3.582031-8 8c0 13.253906-10.746094 24-24 24-4.417969 0-8 3.582031-8 8s3.582031 8 8 8c13.253906 0 24 10.746094 24 24 0 4.417969 3.582031 8 8 8s8-3.582031 8-8c0-13.253906 10.742188-24 24-24 4.417969 0 8-3.582031 8-8s-3.582031-8-8-8zm-32 16.246094c-2.332031-3.136719-5.109375-5.914063-8.25-8.246094 3.140625-2.332031 5.917969-5.109375 8.25-8.246094 2.328125 3.136719 5.109375 5.914063 8.246094 8.246094-3.136719 2.332031-5.917969 5.109375-8.246094 8.246094zm0 0" fill="#fdbd40"/><g fill="#87cee9"><path d="m432.03125 224h16v16h-16zm0 0"/><path d="m432.03125 256h16v16h-16zm0 0"/><path d="m416.03125 240h16v16h-16zm0 0"/><path d="m448.03125 240h16v16h-16zm0 0"/><path d="m112.03125 360h16v16h-16zm0 0"/><path d="m112.03125 392h16v16h-16zm0 0"/><path d="m96.03125 376h16v16h-16zm0 0"/><path d="m128.03125 376h16v16h-16zm0 0"/><path d="m384.03125 424h16v16h-16zm0 0"/><path d="m384.03125 456h16v16h-16zm0 0"/><path d="m368.03125 440h16v16h-16zm0 0"/><path d="m400.03125 440h16v16h-16zm0 0"/><path d="m40.03125 24h16v16h-16zm0 0"/><path d="m40.03125 56h16v16h-16zm0 0"/><path d="m24.03125 40h16v16h-16zm0 0"/><path d="m56.03125 40h16v16h-16zm0 0"/></g></svg>