<svg id="Capa_1" enable-background="new 0 0 512 512" height="512" viewBox="0 0 512 512" width="512" xmlns="http://www.w3.org/2000/svg"><g><g><g><g><g><g><g><g><g><g><g><g><g><g><g><g><g><g><g><circle cx="256" cy="256" fill="#ff6379" r="256"/></g></g></g></g></g></g></g></g></g></g></g></g></g></g></g></g></g></g><path d="m331.839 123.187v109.997l-150.319-150.32-34.112 34.282-25.788 25.788 13.387 13.387-6.258 268.814 83.05 83.05c14.36 2.5 29.127 3.814 44.202 3.814 141.385 0 256-114.615 256-256 0-15.858-1.453-31.374-4.213-46.435l-120.325-120.323z" fill="#ff415b"/><g><g><path d="m142.012 84.836h-.466c-9.702 0-17.567 7.865-17.567 17.567v77.168h18.033l13.262-45.62z" fill="#ffbda9"/><path d="m160.541 84.836h-18.529v94.735h12.163v-24.31h4.445c10.763 0 19.488-8.725 19.488-19.488v-33.37c0-9.702-7.865-17.567-17.567-17.567z" fill="#f9a58d"/><path d="m142.012 82.864h-4.93c-8.539 0-15.462 6.923-15.462 15.462v44.608h14.492l5.901-21.239 6.295-29.771z" fill="#464646"/><path d="m189.055 425.136h-60.307l6.079-24.346h26.234l27.994 15.651z" fill="#464646"/><path d="m142.012 261.346-31.387 15.851v1.544c0 13.445 2.889 26.733 8.471 38.965l9.652 107.431h13.264l15.694-85.4z" fill="#fff0b5"/><path d="m142.455 261.122-.443.224v163.79l19.049-24.346 12.339-123.594z" fill="#ffe377"/><path d="m110.625 277.196h31.387l16.137-71.235-16.136-41.488c-17.335 0-31.387 14.053-31.387 31.387v81.336z" fill="#00dc80"/><path d="m142.012 277.196h31.388v-81.336c0-17.335-14.053-31.387-31.387-31.387z" fill="#00cb76"/><path d="m142.107 231.333-11.99 3.939v55.493c0 6.814 4.554 12.339 11.369 12.339h.622l6.343-40.718z" fill="#ffbda9"/><path d="m142.107 303.104h.348c6.814 0 12.339-5.524 12.339-12.339v-55.493l-12.339-4.305-.348.365z" fill="#f9a58d"/><path d="m142.012 181.281c-8.461.237-15.251 7.153-15.251 15.671v40.668h15.251l6.295-31.402z" fill="#00ed89"/><path d="m142.012 237.62h16.137v-40.668c0-8.667-7.026-15.694-15.694-15.694-.15 0-.294.018-.443.022z" fill="#00dc80"/><path d="m159.694 125.793-15.15-14.141-2.144 4.749 14.094 13.155v27.241h3.792c12.501 0 22.634-10.134 22.634-22.634v-8.37z" fill="#ffe377"/><path d="m142.012 121.695 6.778-8.776h20.039c7.009 0 12.691-5.682 12.691-12.69v-17.365h-39.508z" fill="#2d2d2d"/></g><g><path d="m354.333 84.836h-.466c-9.702 0-17.567 7.865-17.567 17.567v77.168h18.033l13.262-45.62z" fill="#ffbda9"/><path d="m372.861 84.836h-18.529v94.735h12.163v-24.31h4.445c10.763 0 19.488-8.725 19.488-19.488v-33.37c0-9.702-7.865-17.567-17.567-17.567z" fill="#d5985c"/><path d="m401.375 425.136h-60.306l6.078-24.346h26.234l27.994 15.651z" fill="#464646"/><path d="m354.333 261.346-31.387 15.851v1.544c0 13.445 2.889 26.733 8.471 38.965l9.652 107.431h13.264l15.694-85.4z" fill="#918edd"/><path d="m354.776 261.122-.443.224v163.79l19.048-24.346 12.339-123.594z" fill="#6c67d2"/><path d="m322.945 277.196h31.387l16.137-71.235-16.136-41.488c-17.335 0-31.387 14.053-31.387 31.387v81.336z" fill="#b2d7f3"/><path d="m354.333 277.196h31.387v-81.336c0-17.335-14.053-31.387-31.387-31.387z" fill="#95c7ee"/><path d="m354.427 231.333-11.99 3.939v55.493c0 6.814 4.554 12.339 11.369 12.339h.622l6.343-40.718z" fill="#e2a66f"/><path d="m354.427 303.104h.348c6.814 0 12.339-5.524 12.339-12.339v-55.493l-12.339-4.305-.348.365z" fill="#d5985c"/><path d="m354.333 181.281c-8.461.237-15.251 7.153-15.251 15.671v40.668h15.251l6.295-31.402z" fill="#d6e9f8"/><path d="m354.333 237.62h16.137v-40.668c0-8.667-7.026-15.694-15.694-15.694-.15 0-.294.018-.443.022z" fill="#b2d7f3"/><path d="m372.015 125.793-17.517-14.078-2.144 4.749 16.461 13.093v27.241h3.792c12.501 0 22.634-10.134 22.634-22.634v-8.37h-23.226z" fill="#eeeae7"/><path d="m354.333 82.864c-17.335 0-31.387 14.052-31.387 31.387v78.981h31.387v-80.125l6.295-21.183z" fill="#a55d4e"/><path d="m354.333 112.92h39.508v-8.283c0-12.025-9.748-21.773-21.773-21.773h-17.734v30.056z" fill="#905041"/></g><g><path d="m272.356 243.6-27.606-8.018h-45.742v-8.021l-19.246 16.039 19.246 16.039v-8.021h45.742z" fill="#ffe377"/><path d="m310.993 243.6-19.246-16.039v8.021h-46.997v16.036h46.997v8.021z" fill="#fd5"/></g></g></g></svg>