<svg id="Capa_1" enable-background="new 0 0 512 512" height="512" viewBox="0 0 512 512" width="512" xmlns="http://www.w3.org/2000/svg"><g><g><path d="m408.116 493.419 9-28.524v-35.36c0-69.992-49.489-128.419-115.383-142.214-13.644 7.246-29.207 11.358-45.733 11.358-16.526 0-32.089-4.111-45.733-11.358-65.894 13.795-115.383 72.222-115.383 142.214v63.884l161.116 9z" fill="#ffa6d5"/><path d="m128.888 166.665s-28.05-37.79-29.252-92.45c-.067-3.058 2.643-5.438 5.673-5.021 6.266.862 16.729 1.597 26.371-1.003 29.465-7.945 58.456-66.401 109.533-68.104 51.078-1.703 60.983 22.134 60.983 22.134s18.79-11.17 46.848-7.378c41.997 5.675 78.887 69.656 41.394 157.551z" fill="#e5907b"/><path d="m114.763 183.919c0 18.953 15.405 30.12 28.959 30.12l14.635-12.763c0-.082 12.766-17.275 12.766-17.357l-12.772-17.372c-4.341-2.387-9.326-3.748-14.63-3.748-13.553 0-25.031 8.87-28.958 21.12z" fill="#ebbaa1"/><path d="m143.723 205.039c-13.554 0-25.032-8.87-28.959-21.12-.939 2.929-1.451 6.049-1.451 9.29 0 16.795 13.615 30.41 30.41 30.41 5.985 0 11.561-1.736 16.266-4.721l7.973-10.631-9.603-6.992c-4.344 2.393-9.328 3.764-14.636 3.764z" fill="#e8a990"/><path d="m397.237 183.919c0 18.953-15.405 30.12-28.959 30.12l-14.635-12.763c0-.082-12.766-17.275-12.766-17.357l12.772-17.372c4.341-2.387 9.326-3.748 14.63-3.748 13.553 0 25.031 8.87 28.958 21.12z" fill="#ebbaa1"/><path d="m368.278 205.039c13.554 0 25.032-8.87 28.959-21.12.939 2.929 1.451 6.049 1.451 9.29 0 16.795-13.615 30.41-30.41 30.41-5.985 0-11.561-1.736-16.266-4.721l-7.973-10.631 9.603-6.992c4.343 2.393 9.327 3.764 14.636 3.764z" fill="#e8a990"/><path d="m256 289.099c53.93 0 97.648-37.889 97.648-106.647v-28.036c0-8.548-3.48-16.773-9.762-22.568-18.233-16.82-38.53-45.919-46.683-58.071-1.872-2.79-5.844-3.05-8.113-.572-41.13 44.921-94.407 59.891-118.246 64.548-7.263 1.419-12.49 7.791-12.49 15.191v29.508c-.001 64.885 43.717 106.647 97.646 106.647z" fill="#fdd4bb"/><path d="m256 280.099c-53.929 0-97.648-43.718-97.648-97.647v18.581c0 53.929 43.718 97.647 97.647 97.647 53.929 0 97.647-43.719 97.647-97.647v-18.581c.002 53.928-43.717 97.647-97.646 97.647z" fill="#f7c4a8"/><path d="m94.884 512h240.458l7.742-9.29-7.742-9.291h-240.458z" fill="#ff90d1"/><path d="m105.268 283.903c7.549 7.549 19.788 7.549 27.337 0 4.382-4.382 7.565-13.572 7.565-24.797-.048-.281-.08-.444-.08-.444s-22.781-4.556-34.822 7.485c-1.329 1.329-2.411 2.809-3.272 4.378 0 8.6 1.943 12.049 3.272 13.378z" fill="#adf0ff"/><path d="m379.395 283.903c7.549 7.549 19.788 7.549 27.337 0 1.329-1.329 3.272-7.432 3.272-13.378-.861-1.569-1.943-3.049-3.272-4.378-12.041-12.041-34.822-7.485-34.822-7.485s-.032.163-.08.444c-.001 9.922 3.182 20.415 7.565 24.797z" fill="#adf0ff"/><path d="m190.176 493.419 50.579-89.859-50.376-66.438-85.124 156.297 46.798 9z" fill="#fdd4bb"/><path d="m105.255 493.419-10.119 18.581h84.581l10.459-18.581z" fill="#f7c4a8"/><path d="m417.116 493.419v-28.524h-74.032v28.524l37.016 9z" fill="#fdd4bb"/><path d="m417.116 493.419h-66.29l-7.742 9.29 7.742 9.29h61.29c2.762 0 5-2.239 5-5z" fill="#f7c4a8"/><path d="m350.826 493.419v-72.792c0-4.276-3.466-7.742-7.742-7.742s-7.742 3.466-7.742 7.742v72.792l7.742 9.29z" fill="#ff83d0"/><path d="m335.342 493.419h15.484v18.581h-15.484z" fill="#f26bcc"/><path d="m214.876 375.001c1.519.124 2.917.855 3.82 2.083 3.926 5.34 16.38 19.622 37.303 19.622s33.378-14.282 37.304-19.622c.903-1.228 2.301-1.958 3.82-2.083 16.076-1.317 24.921-17.787 24.921-27.318-2.907-96.176-29.578-131.874-66.045-131.874s-63.138 35.699-66.045 131.874c.001 8.229 8.846 26.002 24.922 27.318z" fill="#ebf2f8"/><path d="m322.044 347.684c-1.434 3.047-8.845 17.001-24.921 18.318-1.519.124-2.917.855-3.82 2.083-3.926 5.34-16.38 19.622-37.303 19.622s-33.378-14.282-37.303-19.622c-.903-1.228-2.301-1.958-3.82-2.083-16.076-1.317-23.487-15.27-24.921-18.318-.175 5.779-.268 11.764-.268 17.985 0 0 6.007 14.685 20.955 18.243l7.958-4.674 6.08 14.163c6.342 5.998 16.788 12.887 31.319 12.887s24.977-6.889 31.319-12.887l6.08-14.163 7.958 4.674c14.948-3.558 20.955-18.243 20.955-18.243 0-6.221-.093-12.207-.268-17.985z" fill="#d6e3ed"/><path d="m212.663 365.724 5.938 13.513 7.957-2.729 7.373-66.348c.45-4.12-2.51-7.83-6.63-8.29-4.11-.45-7.82 2.51-8.28 6.63l-6.359 57.227z" fill="#adf0ff"/><path d="m217.342 384.682s2.451 4.094 7.339 8.718l1.876-16.891c-3.785-3.248-6.409-6.449-7.861-8.424-.903-1.228-2.301-1.958-3.82-2.083-.759-.062-1.492-.161-2.213-.277l-2.02 18.183c2.062.49 4.29.774 6.699.774z" fill="#8deaf5"/><path d="m299.336 365.724-5.938 13.513-7.957-2.729-7.372-66.348c-.45-4.12 2.51-7.83 6.63-8.29 4.11-.45 7.82 2.51 8.28 6.63l6.359 57.227z" fill="#adf0ff"/><g fill="#8deaf5"><path d="m294.657 384.682s-2.451 4.094-7.34 8.718l-1.876-16.891c3.785-3.248 6.409-6.449 7.861-8.424.903-1.228 2.301-1.958 3.82-2.083.759-.062 1.492-.161 2.213-.277l2.02 18.183c-2.061.49-4.288.774-6.698.774z"/><path d="m132.605 274.903c-7.549 7.549-19.788 7.549-27.337 0-1.329-1.329-2.411-2.809-3.272-4.378-4.029 7.341-2.947 16.739 3.272 22.959 7.549 7.549 19.788 7.549 27.337 0 11.067-11.067 8.116-31.191 7.565-34.378-1.005 5.611-3.183 11.415-7.565 15.797z"/><path d="m406.732 274.903c-7.549 7.549-19.788 7.549-27.337 0-4.382-4.382-6.56-10.186-7.565-15.797-.55 3.188-3.501 23.311 7.565 34.378 7.549 7.549 19.788 7.549 27.337 0 6.22-6.22 7.302-15.618 3.272-22.959-.861 1.569-1.943 3.049-3.272 4.378z"/></g></g><g fill="#565e75"><path d="m205.543 195.279 20.012-11.264c2.488-1.401 4.007-4.053 3.954-6.908-.052-2.854-1.666-5.45-4.203-6.758l-20.012-10.324c-3.809-1.966-8.493-.47-10.46 3.34-1.966 3.81-.471 8.494 3.34 10.46l7.214 3.721-7.463 4.201c-3.737 2.104-5.061 6.838-2.958 10.575 1.426 2.533 4.06 3.957 6.773 3.957 1.292-.001 2.599-.323 3.803-1z"/><path d="m286.445 184.015 20.011 11.264c1.204.677 2.511.999 3.801.999 2.712 0 5.347-1.424 6.774-3.957 2.103-3.736.778-8.471-2.958-10.575l-7.462-4.201 7.213-3.721c3.811-1.966 5.307-6.649 3.34-10.46-1.967-3.812-6.651-5.305-10.46-3.34l-20.011 10.324c-2.538 1.309-4.151 3.904-4.203 6.758-.051 2.856 1.467 5.507 3.955 6.909z"/></g></g></svg>