<svg id="Capa_1" enable-background="new 0 0 512 512" height="512" viewBox="0 0 512 512" width="512" xmlns="http://www.w3.org/2000/svg"><g><g><path d="m417.116 493.419v-63.884c0-69.992-49.489-128.419-115.383-142.214-13.644 7.246-29.208 11.357-45.733 11.357-16.526 0-32.089-4.111-45.733-11.357-65.893 13.795-115.383 72.222-115.383 142.214v35.359l9 28.524 152.116 9z" fill="#b3e59f"/><path d="m175.703 512h156.58l45.391-9 39.442 9v-18.581h-241.413l-9 9.291z" fill="#95d6a4"/><path d="m94.884 493.419 37.016 9 37.016-9v-28.524h-74.032z" fill="#fdd4bb"/><path d="m94.884 493.419h65.336l9 9.29-9 9.29h-60.336c-2.761 0-5-2.239-5-5z" fill="#f7c4a8"/><path d="m316.545 493.419 46.298 9 38.162-9-74.971-87.84s21.188-28.62 7.977-41.83c-13.21-13.211-27.649 6.909-27.649 6.909s-14.985-33.668-50.362-33.668c-37.505 0-64.872 71.795 15.212 102.907z" fill="#fdd4bb"/><g><path d="m175.703 493.419v-72.792c0-4.276-3.466-7.742-7.742-7.742s-7.742 3.466-7.742 7.742v72.792l7.742 9.29z" fill="#95d6a4"/><path d="m160.22 493.419h15.484v18.581h-15.484z" fill="#78c2a4"/></g><path d="m128.888 166.665s-28.05-37.79-29.252-92.45c-.067-3.058 2.643-5.438 5.673-5.021 6.266.862 16.729 1.597 26.371-1.003 29.465-7.945 58.456-66.401 109.533-68.104 51.078-1.703 60.983 22.134 60.983 22.134s18.79-11.17 46.848-7.378c41.997 5.675 78.887 69.657 41.393 157.551z" fill="#565e75"/><path d="m114.763 183.919c0 18.953 15.405 30.12 28.96 30.12l14.635-12.763c0-.081 12.766-17.275 12.766-17.357l-12.772-17.372c-4.341-2.387-9.326-3.747-14.63-3.747-13.554-.001-25.032 8.869-28.959 21.119z" fill="#ebbaa1"/><path d="m143.723 205.039c-13.554 0-25.032-8.87-28.959-21.12-.939 2.929-1.451 6.049-1.451 9.29 0 16.795 13.615 30.41 30.41 30.41 5.985 0 11.561-1.736 16.266-4.721l7.972-10.63-9.603-6.992c-4.343 2.392-9.327 3.763-14.635 3.763z" fill="#e8a990"/><path d="m397.237 183.919c0 18.953-15.405 30.12-28.96 30.12l-14.635-12.763c0-.081-12.766-17.275-12.766-17.357l12.772-17.372c4.341-2.387 9.326-3.747 14.63-3.747 13.554-.001 25.032 8.869 28.959 21.119z" fill="#ebbaa1"/><path d="m368.278 205.039c13.554 0 25.033-8.87 28.96-21.12.939 2.929 1.451 6.049 1.451 9.29 0 16.795-13.615 30.41-30.41 30.41-5.985 0-11.561-1.736-16.266-4.721l-7.973-10.63 9.603-6.992c4.342 2.392 9.326 3.763 14.635 3.763z" fill="#e8a990"/><path d="m256 289.099c53.929 0 97.648-37.889 97.648-106.647v-28.036c0-8.548-3.48-16.772-9.762-22.568-18.233-16.82-38.53-45.919-46.683-58.071-1.872-2.79-5.844-3.05-8.113-.572-41.13 44.921-94.407 59.891-118.246 64.548-7.263 1.419-12.49 7.791-12.49 15.191v29.508c-.002 64.885 43.717 106.647 97.646 106.647z" fill="#fdd4bb"/><path d="m209.961 287.16c-.093 1.201-.156 2.41-.156 3.634 0 25.513 20.682 46.195 46.195 46.195s46.195-20.682 46.195-46.195c0-1.224-.062-2.434-.156-3.634z" fill="#ebbaa1"/><g fill="#f7c4a8"><path d="m256 280.099c-53.929 0-97.648-43.718-97.648-97.647v18.581c0 53.929 43.718 97.647 97.647 97.647 53.929 0 97.647-43.718 97.647-97.647v-18.581c.001 53.928-43.717 97.647-97.646 97.647z"/><path d="m316.545 493.419 15.738 18.581h84.581l-15.859-18.581z"/></g></g><g><path d="m214.047 163.854c-8.265 8.117-18.068 10.992-18.289 11.056-4.119 1.141-6.542 5.4-5.416 9.526.942 3.452 4.071 5.722 7.486 5.722.677 0 1.364-.089 2.049-.276.556-.152 13.744-3.843 25.051-14.95 3.059-3.005 3.103-7.921.099-10.98s-7.921-3.105-10.98-.098z" fill="#565e75"/><path d="m312.123 189.882c.683.186 1.37.276 2.045.276 3.399 0 6.508-2.257 7.463-5.693 1.143-4.119-1.274-8.392-5.387-9.555-.099-.028-9.975-2.887-18.292-11.057-3.059-3.005-7.974-2.959-10.98.098-3.005 3.059-2.961 7.976.098 10.98 11.309 11.109 24.497 14.8 25.053 14.951z" fill="#565e75"/><g fill="#f4594e"><path d="m263.35 241.117c0 4.289 3.476 7.764 7.764 7.764 4.289 0 7.764-3.476 7.764-7.764 0-13.964-10.264-25.324-22.879-25.324-12.616 0-22.879 11.36-22.879 25.324 0 4.289 3.476 7.764 7.764 7.764s7.764-3.476 7.764-7.764c0-5.31 3.366-9.795 7.351-9.795 3.985-.001 7.351 4.485 7.351 9.795z"/><path d="m113.382 289.918c5.501 0 10.751-2.853 15.835-5.616 3.907-2.124 8.337-4.531 11.2-4.531 5.968 0 9.61 3.064 9.762 3.195 1.401 1.375 3.318 2.225 5.436 2.225 4.288 0 7.764-3.476 7.764-7.764 0-2.422-1.11-4.585-2.849-6.009-1.136-1.028-8.417-7.175-20.113-7.175-6.811 0-13.083 3.409-18.616 6.417-2.603 1.414-6.917 3.806-8.426 3.731-4.278-.178-7.909 3.133-8.096 7.418-.188 4.284 3.133 7.909 7.417 8.097.23.008.458.012.686.012z"/><path d="m188.67 321.74c-2.48-.033-11.262.376-19.619 7.26-5.245 4.32-7.919 10.928-10.067 16.237-1.608 3.975.31 8.501 4.284 10.11 3.874 1.598 8.503-.269 10.11-4.284 1.411-3.487 3.344-8.263 5.545-10.076 4.609-3.795 9.438-3.74 9.438-3.74 4.408.251 8.147-3.34 8.133-7.746 0-4.104-3.187-7.456-7.219-7.737 0 .001-.546-.03-.605-.024z"/><path d="m398.617 289.918c-5.501 0-10.751-2.853-15.835-5.616-3.907-2.124-8.337-4.531-11.2-4.531-5.968 0-9.61 3.064-9.762 3.195-1.401 1.375-3.318 2.225-5.436 2.225-4.288 0-7.764-3.476-7.764-7.764 0-2.422 1.11-4.585 2.849-6.009 1.136-1.028 8.417-7.175 20.113-7.175 6.811 0 13.083 3.409 18.616 6.417 2.603 1.414 6.917 3.806 8.426 3.731 4.278-.178 7.909 3.133 8.096 7.418.188 4.284-3.133 7.909-7.417 8.097-.23.008-.458.012-.686.012z"/><path d="m329.74 321.74c2.48-.033 11.262.376 19.619 7.26 5.245 4.32 7.919 10.928 10.067 16.237 1.608 3.975-.31 8.501-4.284 10.11-3.874 1.598-8.503-.269-10.11-4.284-1.411-3.487-3.344-8.263-5.545-10.076-4.609-3.795-9.438-3.74-9.438-3.74-4.408.251-8.147-3.34-8.133-7.746 0-4.104 3.187-7.456 7.219-7.737-.001.001.546-.03.605-.024z"/></g></g></g></svg>