<svg id="Capa_1" enable-background="new 0 0 512 512" height="512" viewBox="0 0 512 512" width="512" xmlns="http://www.w3.org/2000/svg"><g><g><path d="m299.135.152c-68.801-2.543-79.183 27.644-112.49 36.117-15.381 3.913-30.447.616-43.446-5.222-13.923-6.253-27.607 9.048-19.695 22.1 9.206 15.188 22.307 30.842 40.727 42.418v-.001c0 .001 173.458 171.493 173.458 171.493s77.35-50.043 84.838-119.736c7.797-72.569-39.742-144.077-123.392-147.169z" fill="#e5907b"/><path d="m233.943 313.593s100.419-28.945 103.746-26.878v-19.659l-36.01-58.938c-1.707-2.793-.314-6.452 2.824-7.385 14.318-4.26 24.608-17.872 23.773-33.757-.896-17.051-14.879-30.84-31.939-31.519-9.975-.396-19.02 3.594-25.374 10.195-2.299 2.388-6.204 2.037-7.933-.792l-17.808-29.146c-.971-1.589-2.745-2.491-4.604-2.381-32.292 1.906-57.219-5.724-76.387-17.771v118.949l9.572 37.362c11.998 21.83 34.171 37.278 60.14 39.93z" fill="#fdd4bb"/><path d="m205.07 229.715c-13.62-15.201-40.84-15.201-40.84-15.201s-69.312 27.56-75.217 139.745h.002c0 29.569 13.829 48.199 31.862 58.986l.028.017c8.918 5.334 21.691-3.231 21.691-18.833-.195-47.677 4.123-121.381 31.206-142.552l29.704-14.32c2.996-1.445 3.783-5.366 1.564-7.842z" fill="#b3e59f"/><path d="m112.967 486.088c6.932 0 16.192-7.666 16.192-18.391-3.224-5.607-9.261-9.391-16.192-9.391-6.932 0-12.968 3.784-16.192 9.391 0 12.121 9.26 18.391 16.192 18.391z" fill="#b3e59f"/><g><g><path d="m233.943 313.593v18.581l103.746-26.878v-18.581c-3.327-2.068-6.831-3.729-10.526-4.921-29.894-9.642-63.978 3.386-93.22 31.799z" fill="#f7c4a8"/></g><path d="m398.673 493.419c-2.671-48.2-15.037-174.827-71.51-193.043-66.67-21.507-154.187 69.687-162.311 193.043l122.435 9.581z" fill="#f4594e"/><path d="m164.842 493.419c-.293 4.453-.484 8.947-.566 13.479-.051 2.8 2.204 5.102 5.005 5.102h62.104l55.902-9 55.902 9h51.083c2.825 0 5.088-2.333 4.998-5.157-.102-3.196-.282-7.771-.595-13.424z" fill="#e84642"/><path d="m239.127 463.992h96.319v48.008h-96.319z" fill="#fdd4bb"/><path d="m327.705 493.419h-80.836l-7.742 9.291 7.742 9.29h80.836l7.741-9.29z" fill="#f7c4a8"/><g><path d="m343.189 493.419v-88.807c0-4.276-3.466-7.742-7.742-7.742s-7.742 3.466-7.742 7.742v88.807l7.742 9.29z" fill="#db4040"/><path d="m246.869 493.419v-88.807c0-4.276-3.466-7.742-7.742-7.742s-7.742 3.466-7.742 7.742v88.807l7.742 9.29z" fill="#db4040"/><g fill="#c63c3c"><path d="m231.385 493.419h15.484v18.581h-15.484z"/><path d="m327.705 493.419h15.484v18.581h-15.484z"/></g></g></g><path d="m112.967 477.088c-6.932 0-12.968-3.785-16.192-9.391-1.575 2.739-2.489 5.905-2.489 9.29 0 10.317 8.364 18.681 18.681 18.681 10.318 0 18.681-8.364 18.681-18.681 0-3.385-.914-6.552-2.489-9.29-3.223 5.607-9.26 9.391-16.192 9.391z" fill="#95d6a4"/><g><path d="m120.906 404.26-.028-.016c-18.034-10.786-29.697-29.392-31.862-49.986-.181 3.43-.306 6.932-.365 10.522-.385 23.722 11.866 45.866 32.227 58.044l.028.016c9.801 5.862 22.199-1.394 21.916-12.812-.118-4.755-.202-10.001-.225-15.601-1.71 9.64-12.773 15.167-21.691 9.833z" fill="#95d6a4"/></g></g><g><path d="m223.105 162.227c-3.032-3.033-7.948-3.032-10.98-.001l-4.1 4.1-4.1-4.1c-3.031-3.031-7.947-3.032-10.98.001-3.032 3.032-3.032 7.948.001 10.98l4.099 4.098-4.099 4.098c-3.033 3.032-3.033 7.948-.001 10.98 3.032 3.033 7.948 3.033 10.98.001l4.1-4.1 4.1 4.1c3.032 3.032 7.948 3.032 10.98-.001 3.032-3.032 3.032-7.948-.001-10.98l-4.099-4.098 4.099-4.098c3.033-3.031 3.033-7.948.001-10.98z" fill="#565e75"/></g></g></svg>